<svg width="145" height="68" viewBox="0 0 145 68" fill="none" xmlns="http://www.w3.org/2000/svg">
<path d="M6.43377 6.74645C6.394 6.34541 6.22331 6.03385 5.9217 5.81179C5.62009 5.58972 5.21076 5.47869 4.69371 5.47869C4.34239 5.47869 4.04575 5.52841 3.8038 5.62784C3.56185 5.72396 3.37624 5.85819 3.24698 6.03054C3.12103 6.20289 3.05806 6.39844 3.05806 6.61719C3.05143 6.79948 3.08955 6.95857 3.17241 7.09446C3.25858 7.23035 3.37624 7.34801 3.52539 7.44744C3.67454 7.54356 3.84689 7.62808 4.04244 7.70099C4.23799 7.7706 4.44679 7.83026 4.66886 7.87997L5.58363 8.09872C6.02776 8.19815 6.43543 8.33073 6.80664 8.49645C7.17785 8.66217 7.49935 8.866 7.77113 9.10795C8.04291 9.34991 8.25337 9.63494 8.40252 9.96307C8.55498 10.2912 8.63287 10.6674 8.63619 11.0916C8.63287 11.7147 8.47378 12.255 8.15891 12.7124C7.84736 13.1664 7.3966 13.5194 6.80664 13.7713C6.21999 14.0199 5.51237 14.1442 4.68377 14.1442C3.8618 14.1442 3.14589 14.0182 2.53604 13.7663C1.92951 13.5144 1.45555 13.1416 1.11417 12.6477C0.776101 12.1506 0.598781 11.5357 0.582209 10.8033H2.66531C2.68851 11.1446 2.78628 11.4297 2.95863 11.6584C3.13429 11.8838 3.36796 12.0545 3.65962 12.1705C3.9546 12.2831 4.2877 12.3395 4.65891 12.3395C5.0235 12.3395 5.34002 12.2865 5.60849 12.1804C5.88027 12.0743 6.09073 11.9268 6.23988 11.7379C6.38903 11.549 6.4636 11.3319 6.4636 11.0866C6.4636 10.858 6.39566 10.6657 6.25977 10.5099C6.12719 10.3542 5.93164 10.2216 5.67312 10.1122C5.41791 10.0028 5.1047 9.90341 4.73349 9.81392L3.62482 9.53551C2.76639 9.3267 2.0886 9.00024 1.59144 8.55611C1.09428 8.11198 0.84736 7.51373 0.850675 6.76136C0.84736 6.14489 1.01142 5.6063 1.34286 5.1456C1.67762 4.6849 2.13666 4.32528 2.71999 4.06676C3.30333 3.80824 3.96621 3.67898 4.70863 3.67898C5.46431 3.67898 6.12388 3.80824 6.68732 4.06676C7.25408 4.32528 7.6949 4.6849 8.00977 5.1456C8.32463 5.6063 8.48704 6.13991 8.49698 6.74645H6.43377ZM13.5245 14.1491C12.739 14.1491 12.0629 13.9901 11.4961 13.6719C10.9326 13.3504 10.4985 12.8963 10.1935 12.3097C9.88861 11.7197 9.73615 11.022 9.73615 10.2166C9.73615 9.43111 9.88861 8.74171 10.1935 8.14844C10.4985 7.55516 10.9277 7.0928 11.4812 6.76136C12.038 6.42992 12.6909 6.2642 13.44 6.2642C13.9438 6.2642 14.4128 6.34541 14.8469 6.50781C15.2844 6.6669 15.6656 6.9072 15.9904 7.22869C16.3185 7.55019 16.5737 7.95455 16.756 8.44176C16.9383 8.92566 17.0295 9.49242 17.0295 10.142V10.7237H10.5813V9.41122H15.0359C15.0359 9.1063 14.9696 8.83617 14.837 8.60085C14.7044 8.36553 14.5205 8.18158 14.2852 8.04901C14.0531 7.91312 13.783 7.84517 13.4748 7.84517C13.1533 7.84517 12.8683 7.91974 12.6197 8.06889C12.3744 8.21473 12.1822 8.41193 12.043 8.66051C11.9038 8.90578 11.8325 9.17921 11.8292 9.48082V10.7287C11.8292 11.1065 11.8988 11.433 12.038 11.7081C12.1805 11.9832 12.381 12.1953 12.6396 12.3445C12.8981 12.4936 13.2047 12.5682 13.5593 12.5682C13.7946 12.5682 14.0101 12.535 14.2056 12.4688C14.4012 12.4025 14.5685 12.303 14.7077 12.1705C14.8469 12.0379 14.953 11.8755 15.0259 11.6832L16.9847 11.8125C16.8853 12.2831 16.6815 12.6941 16.3732 13.0455C16.0683 13.3935 15.6739 13.6652 15.19 13.8608C14.7094 14.053 14.1542 14.1491 13.5245 14.1491ZM21.8619 14.1491C21.0797 14.1491 20.4068 13.9834 19.8434 13.652C19.2833 13.3172 18.8524 12.8532 18.5508 12.2599C18.2525 11.6667 18.1033 10.9839 18.1033 10.2116C18.1033 9.42945 18.2541 8.74337 18.5558 8.15341C18.8607 7.56013 19.2932 7.09777 19.8533 6.76633C20.4135 6.43158 21.0797 6.2642 21.8519 6.2642C22.5181 6.2642 23.1014 6.38518 23.6019 6.62713C24.1024 6.86908 24.4985 7.20881 24.7901 7.64631C25.0818 8.08381 25.2425 8.59754 25.2724 9.1875H23.2738C23.2174 8.80634 23.0683 8.49976 22.8263 8.26776C22.5877 8.03243 22.2745 7.91477 21.8867 7.91477C21.5586 7.91477 21.2719 8.00426 21.0266 8.18324C20.7847 8.3589 20.5958 8.61577 20.4599 8.95384C20.324 9.2919 20.256 9.70123 20.256 10.1818C20.256 10.669 20.3223 11.0833 20.4549 11.4247C20.5908 11.7661 20.7814 12.0263 21.0266 12.2053C21.2719 12.3842 21.5586 12.4737 21.8867 12.4737C22.1287 12.4737 22.3458 12.424 22.538 12.3246C22.7335 12.2251 22.8943 12.081 23.0202 11.892C23.1495 11.6998 23.234 11.4695 23.2738 11.201H25.2724C25.2392 11.7843 25.0801 12.2981 24.7951 12.7422C24.5134 13.183 24.1239 13.5277 23.6268 13.7763C23.1296 14.0249 22.5413 14.1491 21.8619 14.1491ZM31.5254 10.7486V6.36364H33.6433V14H31.6099V12.6129H31.5304C31.358 13.0604 31.0713 13.42 30.6703 13.6918C30.2725 13.9635 29.787 14.0994 29.2136 14.0994C28.7032 14.0994 28.2541 13.9834 27.8663 13.7514C27.4785 13.5194 27.1752 13.1896 26.9565 12.7621C26.7411 12.3345 26.6317 11.8224 26.6284 11.2259V6.36364H28.7463V10.848C28.7496 11.2988 28.8706 11.6551 29.1092 11.9169C29.3478 12.1787 29.6677 12.3097 30.0687 12.3097C30.3239 12.3097 30.5626 12.2517 30.7846 12.1357C31.0067 12.0163 31.1857 11.8407 31.3216 11.6087C31.4608 11.3767 31.5287 11.09 31.5254 10.7486ZM35.3374 14V6.36364H37.3906V7.69602H37.4702C37.6094 7.22206 37.843 6.86411 38.1712 6.62216C38.4993 6.37689 38.8771 6.25426 39.3047 6.25426C39.4107 6.25426 39.5251 6.26089 39.6477 6.27415C39.7704 6.28741 39.8781 6.30563 39.9709 6.32883V8.2081C39.8714 8.17827 39.7339 8.15175 39.5582 8.12855C39.3826 8.10535 39.2218 8.09375 39.076 8.09375C38.7644 8.09375 38.486 8.1617 38.2408 8.29759C37.9988 8.43016 37.8066 8.61577 37.6641 8.8544C37.5249 9.09304 37.4553 9.36813 37.4553 9.67969V14H35.3374ZM44.1905 14.1491C43.405 14.1491 42.7289 13.9901 42.1621 13.6719C41.5987 13.3504 41.1645 12.8963 40.8596 12.3097C40.5546 11.7197 40.4022 11.022 40.4022 10.2166C40.4022 9.43111 40.5546 8.74171 40.8596 8.14844C41.1645 7.55516 41.5937 7.0928 42.1472 6.76136C42.704 6.42992 43.3569 6.2642 44.106 6.2642C44.6098 6.2642 45.0788 6.34541 45.513 6.50781C45.9505 6.6669 46.3316 6.9072 46.6564 7.22869C46.9846 7.55019 47.2398 7.95455 47.4221 8.44176C47.6043 8.92566 47.6955 9.49242 47.6955 10.142V10.7237H41.2473V9.41122H45.7019C45.7019 9.1063 45.6356 8.83617 45.503 8.60085C45.3704 8.36553 45.1865 8.18158 44.9512 8.04901C44.7192 7.91312 44.449 7.84517 44.1408 7.84517C43.8193 7.84517 43.5343 7.91974 43.2857 8.06889C43.0404 8.21473 42.8482 8.41193 42.709 8.66051C42.5698 8.90578 42.4985 9.17921 42.4952 9.48082V10.7287C42.4952 11.1065 42.5648 11.433 42.704 11.7081C42.8465 11.9832 43.0471 12.1953 43.3056 12.3445C43.5641 12.4936 43.8707 12.5682 44.2253 12.5682C44.4606 12.5682 44.6761 12.535 44.8716 12.4688C45.0672 12.4025 45.2346 12.303 45.3738 12.1705C45.513 12.0379 45.619 11.8755 45.6919 11.6832L47.6507 11.8125C47.5513 12.2831 47.3475 12.6941 47.0392 13.0455C46.7343 13.3935 46.3399 13.6652 45.856 13.8608C45.3754 14.053 44.8203 14.1491 44.1905 14.1491ZM52.3178 16.8636V6.36364H54.4059V7.64631H54.5004C54.5932 7.44081 54.7274 7.23201 54.9031 7.01989C55.082 6.80445 55.314 6.62547 55.5991 6.48295C55.8874 6.33712 56.2454 6.2642 56.6729 6.2642C57.2298 6.2642 57.7435 6.41004 58.2141 6.7017C58.6848 6.99006 59.061 7.4259 59.3427 8.00923C59.6244 8.58925 59.7653 9.31676 59.7653 10.1918C59.7653 11.0436 59.6277 11.7628 59.3526 12.3494C59.0808 12.9328 58.7096 13.3752 58.239 13.6768C57.7717 13.9751 57.248 14.1243 56.668 14.1243C56.257 14.1243 55.9073 14.0563 55.619 13.9205C55.3339 13.7846 55.1003 13.6139 54.918 13.4084C54.7357 13.1996 54.5965 12.9891 54.5004 12.777H54.4357V16.8636H52.3178ZM54.391 10.1818C54.391 10.6359 54.454 11.032 54.5799 11.37C54.7058 11.7081 54.8881 11.9716 55.1268 12.1605C55.3654 12.3461 55.6554 12.4389 55.9968 12.4389C56.3415 12.4389 56.6332 12.3445 56.8718 12.1555C57.1104 11.9633 57.2911 11.6982 57.4137 11.3601C57.5397 11.0187 57.6026 10.6259 57.6026 10.1818C57.6026 9.741 57.5413 9.35322 57.4187 9.01847C57.296 8.68371 57.1154 8.42187 56.8768 8.23295C56.6381 8.04403 56.3448 7.94957 55.9968 7.94957C55.6521 7.94957 55.3604 8.04072 55.1218 8.22301C54.8865 8.4053 54.7058 8.66383 54.5799 8.99858C54.454 9.33333 54.391 9.72775 54.391 10.1818ZM63.3548 14.1442C62.8675 14.1442 62.4334 14.0597 62.0522 13.8906C61.671 13.7183 61.3694 13.4647 61.1474 13.13C60.9286 12.7919 60.8192 12.371 60.8192 11.8672C60.8192 11.4429 60.8971 11.0866 61.0529 10.7983C61.2087 10.5099 61.4208 10.2779 61.6893 10.1023C61.9577 9.92661 62.2627 9.79403 62.604 9.70455C62.9487 9.61506 63.31 9.55208 63.6879 9.51562C64.132 9.46922 64.4899 9.42614 64.7617 9.38636C65.0335 9.34328 65.2307 9.2803 65.3533 9.19744C65.476 9.11458 65.5373 8.99195 65.5373 8.82955V8.79972C65.5373 8.48485 65.4379 8.24124 65.239 8.06889C65.0434 7.89654 64.765 7.81037 64.4038 7.81037C64.0226 7.81037 63.7193 7.89489 63.494 8.06392C63.2686 8.22964 63.1194 8.43845 63.0465 8.69034L61.0877 8.53125C61.1871 8.06723 61.3827 7.66619 61.6744 7.32812C61.966 6.98674 62.3422 6.7249 62.8029 6.54261C63.2669 6.35701 63.8039 6.2642 64.4137 6.2642C64.8379 6.2642 65.244 6.31392 65.6317 6.41335C66.0228 6.51278 66.3692 6.6669 66.6708 6.87571C66.9757 7.08452 67.216 7.35298 67.3917 7.68111C67.5674 8.00592 67.6552 8.39536 67.6552 8.84943V14H65.6467V12.9411H65.587C65.4644 13.1797 65.3003 13.3902 65.0948 13.5724C64.8893 13.7514 64.6424 13.8923 64.354 13.995C64.0657 14.0945 63.7326 14.1442 63.3548 14.1442ZM63.9613 12.6825C64.2728 12.6825 64.5479 12.6212 64.7866 12.4986C65.0252 12.3726 65.2125 12.2036 65.3484 11.9915C65.4843 11.7794 65.5522 11.5391 65.5522 11.2706V10.4602C65.4859 10.5033 65.3948 10.5431 65.2788 10.5795C65.1661 10.6127 65.0385 10.6442 64.896 10.674C64.7534 10.7005 64.6109 10.7254 64.4684 10.7486C64.3259 10.7685 64.1966 10.7867 64.0806 10.8033C63.832 10.8397 63.6149 10.8977 63.4293 10.9773C63.2437 11.0568 63.0996 11.1645 62.9968 11.3004C62.8941 11.433 62.8427 11.5987 62.8427 11.7976C62.8427 12.0859 62.9471 12.3063 63.1559 12.4588C63.368 12.608 63.6365 12.6825 63.9613 12.6825ZM70.3324 16.8636C70.0639 16.8636 69.812 16.8421 69.5767 16.799C69.3447 16.7592 69.1525 16.7079 69 16.6449L69.4773 15.0639C69.7259 15.1402 69.9496 15.1816 70.1484 15.1882C70.3506 15.1948 70.5246 15.1484 70.6705 15.049C70.8196 14.9496 70.9406 14.7805 71.0334 14.5419L71.1577 14.2188L68.4183 6.36364H70.6456L72.2266 11.9716H72.3061L73.902 6.36364H76.1442L73.1761 14.8253C73.0336 15.2363 72.8397 15.5942 72.5945 15.8991C72.3525 16.2074 72.0459 16.4444 71.6747 16.6101C71.3035 16.7791 70.8561 16.8636 70.3324 16.8636ZM77.228 14V6.36364H79.2464V7.71094H79.3359C79.495 7.26349 79.7602 6.91051 80.1314 6.65199C80.5026 6.39347 80.9467 6.2642 81.4638 6.2642C81.9875 6.2642 82.4332 6.39512 82.8011 6.65696C83.169 6.91548 83.4143 7.26681 83.5369 7.71094H83.6165C83.7723 7.27344 84.054 6.92377 84.4616 6.66193C84.8726 6.39678 85.3582 6.2642 85.9183 6.2642C86.6309 6.2642 87.2093 6.49124 87.6534 6.94531C88.1009 7.39607 88.3246 8.03575 88.3246 8.86435V14H86.2116V9.28196C86.2116 8.85772 86.099 8.53954 85.8736 8.32741C85.6482 8.11529 85.3665 8.00923 85.0284 8.00923C84.6439 8.00923 84.344 8.13187 84.1286 8.37713C83.9131 8.61908 83.8054 8.93892 83.8054 9.33665V14H81.7521V9.23722C81.7521 8.86269 81.6444 8.56439 81.429 8.34233C81.2169 8.12026 80.9368 8.00923 80.5888 8.00923C80.3535 8.00923 80.1413 8.06889 79.9524 8.18821C79.7668 8.30421 79.6193 8.46828 79.5099 8.6804C79.4006 8.8892 79.3459 9.13447 79.3459 9.41619V14H77.228ZM93.4776 14.1491C92.6921 14.1491 92.016 13.9901 91.4492 13.6719C90.8858 13.3504 90.4516 12.8963 90.1467 12.3097C89.8417 11.7197 89.6893 11.022 89.6893 10.2166C89.6893 9.43111 89.8417 8.74171 90.1467 8.14844C90.4516 7.55516 90.8808 7.0928 91.4343 6.76136C91.9911 6.42992 92.6441 6.2642 93.3931 6.2642C93.8969 6.2642 94.3659 6.34541 94.8001 6.50781C95.2376 6.6669 95.6187 6.9072 95.9435 7.22869C96.2717 7.55019 96.5269 7.95455 96.7092 8.44176C96.8915 8.92566 96.9826 9.49242 96.9826 10.142V10.7237H90.5344V9.41122H94.989C94.989 9.1063 94.9227 8.83617 94.7901 8.60085C94.6576 8.36553 94.4736 8.18158 94.2383 8.04901C94.0063 7.91312 93.7362 7.84517 93.4279 7.84517C93.1064 7.84517 92.8214 7.91974 92.5728 8.06889C92.3275 8.21473 92.1353 8.41193 91.9961 8.66051C91.8569 8.90578 91.7856 9.17921 91.7823 9.48082V10.7287C91.7823 11.1065 91.8519 11.433 91.9911 11.7081C92.1336 11.9832 92.3342 12.1953 92.5927 12.3445C92.8512 12.4936 93.1578 12.5682 93.5124 12.5682C93.7478 12.5682 93.9632 12.535 94.1587 12.4688C94.3543 12.4025 94.5217 12.303 94.6609 12.1705C94.8001 12.0379 94.9061 11.8755 94.979 11.6832L96.9379 11.8125C96.8384 12.2831 96.6346 12.6941 96.3263 13.0455C96.0214 13.3935 95.627 13.6652 95.1431 13.8608C94.6625 14.053 94.1074 14.1491 93.4776 14.1491ZM100.483 9.58523V14H98.3647V6.36364H100.383V7.71094H100.473C100.642 7.26681 100.925 6.91548 101.323 6.65696C101.721 6.39512 102.203 6.2642 102.77 6.2642C103.3 6.2642 103.762 6.38021 104.157 6.61222C104.551 6.84422 104.858 7.17566 105.076 7.60653C105.295 8.03409 105.404 8.54451 105.404 9.13778V14H103.287V9.51562C103.29 9.0483 103.171 8.68371 102.929 8.42188C102.687 8.15672 102.354 8.02415 101.929 8.02415C101.644 8.02415 101.392 8.08546 101.174 8.2081C100.958 8.33073 100.789 8.50971 100.667 8.74503C100.547 8.97704 100.486 9.2571 100.483 9.58523ZM111.135 6.36364V7.95455H106.537V6.36364H111.135ZM107.581 4.53409H109.699V11.6534C109.699 11.849 109.729 12.0014 109.788 12.1108C109.848 12.2169 109.931 12.2914 110.037 12.3345C110.146 12.3776 110.272 12.3991 110.415 12.3991C110.514 12.3991 110.613 12.3909 110.713 12.3743C110.812 12.3544 110.889 12.3395 110.942 12.3295L111.275 13.9055C111.169 13.9387 111.019 13.9768 110.827 14.0199C110.635 14.0663 110.401 14.0945 110.126 14.1044C109.616 14.1243 109.168 14.0563 108.784 13.9006C108.403 13.7448 108.106 13.5028 107.894 13.1747C107.682 12.8466 107.577 12.4323 107.581 11.9318V4.53409ZM117.262 14L115.184 6.36364H117.326L118.51 11.4943H118.579L119.812 6.36364H121.915L123.168 11.4645H123.233L124.396 6.36364H126.534L124.461 14H122.218L120.906 9.19744H120.811L119.499 14H117.262ZM127.664 14V6.36364H129.781V14H127.664ZM128.727 5.37926C128.413 5.37926 128.142 5.27486 127.917 5.06605C127.695 4.85393 127.584 4.60038 127.584 4.3054C127.584 4.01373 127.695 3.76349 127.917 3.55469C128.142 3.34257 128.413 3.23651 128.727 3.23651C129.042 3.23651 129.311 3.34257 129.533 3.55469C129.758 3.76349 129.871 4.01373 129.871 4.3054C129.871 4.60038 129.758 4.85393 129.533 5.06605C129.311 5.27486 129.042 5.37926 128.727 5.37926ZM135.54 6.36364V7.95455H130.941V6.36364H135.54ZM131.985 4.53409H134.103V11.6534C134.103 11.849 134.133 12.0014 134.192 12.1108C134.252 12.2169 134.335 12.2914 134.441 12.3345C134.55 12.3776 134.676 12.3991 134.819 12.3991C134.918 12.3991 135.018 12.3909 135.117 12.3743C135.217 12.3544 135.293 12.3395 135.346 12.3295L135.679 13.9055C135.573 13.9387 135.424 13.9768 135.232 14.0199C135.039 14.0663 134.806 14.0945 134.531 14.1044C134.02 14.1243 133.573 14.0563 133.188 13.9006C132.807 13.7448 132.51 13.5028 132.298 13.1747C132.086 12.8466 131.982 12.4323 131.985 11.9318V4.53409ZM139.201 9.58523V14H137.083V3.81818H139.142V7.71094H139.231C139.404 7.26018 139.682 6.9072 140.066 6.65199C140.451 6.39347 140.933 6.2642 141.513 6.2642C142.043 6.2642 142.506 6.38021 142.9 6.61222C143.298 6.84091 143.606 7.17069 143.825 7.60156C144.047 8.02912 144.156 8.54119 144.153 9.13778V14H142.035V9.51562C142.038 9.04498 141.919 8.67874 141.677 8.4169C141.439 8.15507 141.104 8.02415 140.673 8.02415C140.385 8.02415 140.129 8.08546 139.907 8.2081C139.689 8.33073 139.516 8.50971 139.39 8.74503C139.268 8.97704 139.205 9.2571 139.201 9.58523Z" fill="#555555"/>
<path d="M38.0355 33.048C37.3529 32.4933 36.6702 32.088 35.9875 31.832C35.3049 31.5547 34.6435 31.416 34.0035 31.416C33.1929 31.416 32.5315 31.608 32.0195 31.992C31.5075 32.376 31.2515 32.8773 31.2515 33.496C31.2515 33.9227 31.3795 34.2747 31.6355 34.552C31.8915 34.8293 32.2222 35.0747 32.6275 35.288C33.0542 35.48 33.5235 35.6507 34.0355 35.8C34.5689 35.9493 35.0915 36.1093 35.6035 36.28C37.6515 36.9627 39.1449 37.88 40.0835 39.032C41.0435 40.1627 41.5235 41.6453 41.5235 43.48C41.5235 44.7173 41.3102 45.8373 40.8835 46.84C40.4782 47.8427 39.8702 48.7067 39.0595 49.432C38.2702 50.136 37.2889 50.68 36.1155 51.064C34.9635 51.4693 33.6515 51.672 32.1795 51.672C29.1289 51.672 26.3022 50.7653 23.6995 48.952L26.3875 43.896C27.3262 44.728 28.2542 45.3467 29.1715 45.752C30.0889 46.1573 30.9955 46.36 31.8915 46.36C32.9155 46.36 33.6729 46.1253 34.1635 45.656C34.6755 45.1867 34.9315 44.6533 34.9315 44.056C34.9315 43.6933 34.8675 43.384 34.7395 43.128C34.6115 42.8507 34.3982 42.6053 34.0995 42.392C33.8009 42.1573 33.4062 41.944 32.9155 41.752C32.4462 41.56 31.8702 41.3467 31.1875 41.112C30.3769 40.856 29.5769 40.5787 28.7875 40.28C28.0195 39.96 27.3262 39.544 26.7075 39.032C26.1102 38.52 25.6195 37.88 25.2355 37.112C24.8729 36.3227 24.6915 35.3307 24.6915 34.136C24.6915 32.9413 24.8835 31.864 25.2675 30.904C25.6729 29.9227 26.2275 29.0907 26.9315 28.408C27.6569 27.704 28.5315 27.16 29.5555 26.776C30.6009 26.392 31.7635 26.2 33.0435 26.2C34.2382 26.2 35.4862 26.3707 36.7875 26.712C38.0889 27.032 39.3369 27.512 40.5315 28.152L38.0355 33.048Z" fill="#009600"/>
<path d="M26.8637 50.223H28.4237C30.1517 50.223 31.0157 49.471 31.0157 47.967C31.0157 46.463 30.1517 45.711 28.4237 45.711H26.8637V50.223ZM26.8637 60.015H22.1597V41.919H29.6477C31.6797 41.919 33.2317 42.447 34.3037 43.503C35.3917 44.559 35.9357 46.047 35.9357 47.967C35.9357 49.887 35.3917 51.375 34.3037 52.431C33.2317 53.487 31.6797 54.015 29.6477 54.015H26.8637V60.015Z" fill="#009600"/>
<path d="M26.8637 50.223H25.8637V51.223H26.8637V50.223ZM26.8637 45.711V44.711H25.8637V45.711H26.8637ZM26.8637 60.015V61.015H27.8637V60.015H26.8637ZM22.1597 60.015H21.1597V61.015H22.1597V60.015ZM22.1597 41.919V40.919H21.1597V41.919H22.1597ZM34.3037 43.503L33.6019 44.2154L33.6072 44.2206L34.3037 43.503ZM34.3037 52.431L33.6072 51.7134L33.6019 51.7186L34.3037 52.431ZM26.8637 54.015V53.015H25.8637V54.015H26.8637ZM26.8637 51.223H28.4237V49.223H26.8637V51.223ZM28.4237 51.223C29.4104 51.223 30.3371 51.0113 31.0242 50.4133C31.7378 49.7922 32.0157 48.9121 32.0157 47.967H30.0157C30.0157 48.5259 29.8616 48.7738 29.7111 48.9047C29.5342 49.0587 29.165 49.223 28.4237 49.223V51.223ZM32.0157 47.967C32.0157 47.0219 31.7378 46.1418 31.0242 45.5207C30.3371 44.9227 29.4104 44.711 28.4237 44.711V46.711C29.165 46.711 29.5342 46.8753 29.7111 47.0293C29.8616 47.1602 30.0157 47.4081 30.0157 47.967H32.0157ZM28.4237 44.711H26.8637V46.711H28.4237V44.711ZM25.8637 45.711V50.223H27.8637V45.711H25.8637ZM26.8637 59.015H22.1597V61.015H26.8637V59.015ZM23.1597 60.015V41.919H21.1597V60.015H23.1597ZM22.1597 42.919H29.6477V40.919H22.1597V42.919ZM29.6477 42.919C31.5115 42.919 32.7749 43.4008 33.6019 44.2154L35.0054 42.7906C33.6884 41.4932 31.8479 40.919 29.6477 40.919V42.919ZM33.6072 44.2206C34.4526 45.0412 34.9357 46.2413 34.9357 47.967H36.9357C36.9357 45.8527 36.3307 44.0769 35.0001 42.7854L33.6072 44.2206ZM34.9357 47.967C34.9357 49.6927 34.4526 50.8929 33.6072 51.7134L35.0001 53.1486C36.3307 51.8572 36.9357 50.0813 36.9357 47.967H34.9357ZM33.6019 51.7186C32.7749 52.5332 31.5115 53.015 29.6477 53.015V55.015C31.8479 55.015 33.6884 54.4408 35.0054 53.1434L33.6019 51.7186ZM29.6477 53.015H26.8637V55.015H29.6477V53.015ZM25.8637 54.015V60.015H27.8637V54.015H25.8637Z" fill="white"/>
<path d="M54.0772 39.5315C53.7359 39.2542 53.3945 39.0515 53.0532 38.9235C52.7119 38.7848 52.3812 38.7155 52.0612 38.7155C51.6559 38.7155 51.3252 38.8115 51.0692 39.0035C50.8132 39.1955 50.6852 39.4462 50.6852 39.7555C50.6852 39.9688 50.7492 40.1448 50.8772 40.2835C51.0052 40.4222 51.1705 40.5448 51.3732 40.6515C51.5865 40.7475 51.8212 40.8328 52.0772 40.9075C52.3439 40.9822 52.6052 41.0622 52.8612 41.1475C53.8852 41.4888 54.6319 41.9475 55.1012 42.5235C55.5812 43.0888 55.8212 43.8302 55.8212 44.7475C55.8212 45.3662 55.7145 45.9262 55.5012 46.4275C55.2985 46.9288 54.9945 47.3608 54.5892 47.7235C54.1945 48.0755 53.7039 48.3475 53.1172 48.5395C52.5412 48.7422 51.8852 48.8435 51.1492 48.8435C49.6239 48.8435 48.2105 48.3902 46.9092 47.4835L48.2532 44.9555C48.7225 45.3715 49.1865 45.6808 49.6452 45.8835C50.1039 46.0862 50.5572 46.1875 51.0052 46.1875C51.5172 46.1875 51.8959 46.0702 52.1412 45.8355C52.3972 45.6008 52.5252 45.3342 52.5252 45.0355C52.5252 44.8542 52.4932 44.6995 52.4292 44.5715C52.3652 44.4328 52.2585 44.3102 52.1092 44.2035C51.9599 44.0862 51.7625 43.9795 51.5172 43.8835C51.2825 43.7875 50.9945 43.6808 50.6532 43.5635C50.2479 43.4355 49.8479 43.2968 49.4532 43.1475C49.0692 42.9875 48.7225 42.7795 48.4132 42.5235C48.1145 42.2675 47.8692 41.9475 47.6772 41.5635C47.4959 41.1688 47.4052 40.6728 47.4052 40.0755C47.4052 39.4782 47.5012 38.9395 47.6932 38.4595C47.8959 37.9688 48.1732 37.5528 48.5252 37.2115C48.8879 36.8595 49.3252 36.5875 49.8372 36.3955C50.3599 36.2035 50.9412 36.1075 51.5812 36.1075C52.1785 36.1075 52.8025 36.1928 53.4532 36.3635C54.1039 36.5235 54.7279 36.7635 55.3252 37.0835L54.0772 39.5315ZM60.213 44.3795C60.213 44.6462 60.261 44.8968 60.357 45.1315C60.453 45.3555 60.581 45.5528 60.741 45.7235C60.9116 45.8942 61.109 46.0275 61.333 46.1235C61.5676 46.2195 61.8183 46.2675 62.085 46.2675C62.341 46.2675 62.581 46.2195 62.805 46.1235C63.0396 46.0275 63.237 45.8942 63.397 45.7235C63.5676 45.5528 63.701 45.3555 63.797 45.1315C63.9036 44.9075 63.957 44.6675 63.957 44.4115C63.957 44.1555 63.9036 43.9155 63.797 43.6915C63.701 43.4568 63.5676 43.2542 63.397 43.0835C63.237 42.9128 63.0396 42.7795 62.805 42.6835C62.581 42.5875 62.341 42.5395 62.085 42.5395C61.8183 42.5395 61.5676 42.5875 61.333 42.6835C61.109 42.7795 60.9116 42.9128 60.741 43.0835C60.581 43.2542 60.453 43.4515 60.357 43.6755C60.261 43.8888 60.213 44.1235 60.213 44.3795ZM63.861 40.2995H66.773V48.5075H63.861V47.5955C63.2423 48.3742 62.405 48.7635 61.349 48.7635C60.7516 48.7635 60.2023 48.6568 59.701 48.4435C59.1996 48.2195 58.7623 47.9102 58.389 47.5155C58.0156 47.1208 57.7223 46.6568 57.509 46.1235C57.3063 45.5902 57.205 45.0088 57.205 44.3795C57.205 43.7928 57.3063 43.2382 57.509 42.7155C57.7116 42.1822 57.9943 41.7182 58.357 41.3235C58.7196 40.9288 59.1516 40.6195 59.653 40.3955C60.1543 40.1608 60.709 40.0435 61.317 40.0435C62.341 40.0435 63.189 40.4008 63.861 41.1155V40.2995ZM71.8797 42.7155V48.5075H68.9837V42.7155H67.9437V40.2995H68.9837V39.0675C68.9837 38.3848 69.0477 37.8408 69.1757 37.4355C69.2824 37.0942 69.453 36.7795 69.6877 36.4915C69.9224 36.1928 70.1944 35.9368 70.5037 35.7235C70.8237 35.5102 71.165 35.3448 71.5277 35.2275C71.8904 35.1102 72.2477 35.0515 72.5997 35.0515C72.845 35.0515 73.069 35.0782 73.2717 35.1315C73.485 35.1848 73.6984 35.2595 73.9117 35.3555V37.8835C73.7197 37.7875 73.5384 37.7182 73.3677 37.6755C73.2077 37.6222 73.037 37.5955 72.8557 37.5955C72.7384 37.5955 72.6157 37.6168 72.4877 37.6595C72.3704 37.6915 72.2584 37.7662 72.1517 37.8835C72.045 38.0008 71.9704 38.1715 71.9277 38.3955C71.8957 38.6088 71.8797 38.9022 71.8797 39.2755V40.2995H73.9117V42.7155H71.8797ZM81.1656 43.2115C81.0696 42.8062 80.8723 42.4808 80.5736 42.2355C80.2749 41.9902 79.9123 41.8675 79.4856 41.8675C79.0376 41.8675 78.6696 41.9848 78.3816 42.2195C78.1043 42.4542 77.9283 42.7848 77.8536 43.2115H81.1656ZM77.7736 44.8915C77.7736 46.1395 78.3603 46.7635 79.5336 46.7635C80.1629 46.7635 80.6376 46.5075 80.9576 45.9955H83.7576C83.1923 47.8728 81.7789 48.8115 79.5176 48.8115C78.8243 48.8115 78.1896 48.7102 77.6136 48.5075C77.0376 48.2942 76.5416 47.9955 76.1256 47.6115C75.7203 47.2275 75.4056 46.7688 75.1816 46.2355C74.9576 45.7022 74.8456 45.1048 74.8456 44.4435C74.8456 43.7608 74.9523 43.1475 75.1656 42.6035C75.3789 42.0488 75.6829 41.5795 76.0776 41.1955C76.4723 40.8115 76.9469 40.5182 77.5016 40.3155C78.0669 40.1022 78.7016 39.9955 79.4056 39.9955C80.0989 39.9955 80.7229 40.1022 81.2776 40.3155C81.8323 40.5182 82.3016 40.8168 82.6856 41.2115C83.0696 41.6062 83.3629 42.0915 83.5656 42.6675C83.7683 43.2328 83.8696 43.8728 83.8696 44.5875V44.8915H77.7736ZM85.525 40.2995H88.421V41.6435C88.7303 41.1528 89.109 40.7795 89.557 40.5235C90.005 40.2568 90.5276 40.1235 91.125 40.1235C91.1996 40.1235 91.2796 40.1235 91.365 40.1235C91.461 40.1235 91.5676 40.1342 91.685 40.1555V42.9235C91.301 42.7315 90.885 42.6355 90.437 42.6355C89.765 42.6355 89.2583 42.8382 88.917 43.2435C88.5863 43.6382 88.421 44.2195 88.421 44.9875V48.5075H85.525V40.2995ZM96.3705 41.9795H97.4105C98.5625 41.9795 99.1385 41.4782 99.1385 40.4755C99.1385 39.4728 98.5625 38.9715 97.4105 38.9715H96.3705V41.9795ZM96.3705 48.5075H93.2345V36.4435H98.2265C99.5811 36.4435 100.616 36.7955 101.33 37.4995C102.056 38.2035 102.418 39.1955 102.418 40.4755C102.418 41.7555 102.056 42.7475 101.33 43.4515C100.616 44.1555 99.5811 44.5075 98.2265 44.5075H96.3705V48.5075ZM106.307 44.3795C106.307 44.6462 106.355 44.8968 106.451 45.1315C106.547 45.3555 106.675 45.5528 106.835 45.7235C107.005 45.8942 107.203 46.0275 107.427 46.1235C107.661 46.2195 107.912 46.2675 108.179 46.2675C108.435 46.2675 108.675 46.2195 108.899 46.1235C109.133 46.0275 109.331 45.8942 109.491 45.7235C109.661 45.5528 109.795 45.3555 109.891 45.1315C109.997 44.9075 110.051 44.6675 110.051 44.4115C110.051 44.1555 109.997 43.9155 109.891 43.6915C109.795 43.4568 109.661 43.2542 109.491 43.0835C109.331 42.9128 109.133 42.7795 108.899 42.6835C108.675 42.5875 108.435 42.5395 108.179 42.5395C107.912 42.5395 107.661 42.5875 107.427 42.6835C107.203 42.7795 107.005 42.9128 106.835 43.0835C106.675 43.2542 106.547 43.4515 106.451 43.6755C106.355 43.8888 106.307 44.1235 106.307 44.3795ZM109.955 40.2995H112.867V48.5075H109.955V47.5955C109.336 48.3742 108.499 48.7635 107.443 48.7635C106.845 48.7635 106.296 48.6568 105.795 48.4435C105.293 48.2195 104.856 47.9102 104.483 47.5155C104.109 47.1208 103.816 46.6568 103.603 46.1235C103.4 45.5902 103.299 45.0088 103.299 44.3795C103.299 43.7928 103.4 43.2382 103.603 42.7155C103.805 42.1822 104.088 41.7182 104.451 41.3235C104.813 40.9288 105.245 40.6195 105.747 40.3955C106.248 40.1608 106.803 40.0435 107.411 40.0435C108.435 40.0435 109.283 40.4008 109.955 41.1155V40.2995ZM117.97 47.3875L114.002 40.2995H117.362L119.554 44.5075L121.682 40.2995H125.01L118.418 52.6035H115.17L117.97 47.3875Z" fill="#202020"/>
</svg>
